<svg xmlns="http://www.w3.org/2000/svg" width="144" height="144" viewBox="0 0 144 144" role="img" aria-label="HL7 Message Explorer webhook logo">
  <rect x="18" y="18" width="108" height="108" rx="12" fill="#141b2d"/>
  <rect x="18.5" y="18.5" width="107" height="107" rx="11.5" fill="none" stroke="#2a344d"/>
  <g fill="none" stroke="#2f6feb" stroke-width="9" stroke-linecap="round" stroke-linejoin="round">
    <path d="M62 43a22 22 0 0 1 32 20"/>
    <path d="M52 94a22 22 0 0 1-3-37"/>
    <path d="M99 82a22 22 0 0 1-35 15"/>
    <path d="M61 43l8 15"/>
    <path d="M49 57l17 1"/>
    <path d="M64 97l9-15"/>
  </g>
  <circle cx="62" cy="43" r="8" fill="#7aa2ff"/>
  <circle cx="49" cy="57" r="8" fill="#13a7b8"/>
  <circle cx="99" cy="82" r="8" fill="#22d3ee"/>
</svg>
