<svg xmlns="http://www.w3.org/2000/svg" width="144" height="144" viewBox="0 0 144 144" role="img" aria-label="HL7 Message Explorer webhook logo">
  <rect x="18" y="18" width="108" height="108" rx="12" fill="#141b2d"/>
  <rect x="18.5" y="18.5" width="107" height="107" rx="11.5" fill="none" stroke="#2a344d"/>
  <g fill="none" stroke="#2f6feb" stroke-width="8.5" stroke-linecap="round" stroke-linejoin="round">
    <path d="M55 48c8-7 20-9 30-4 10 4 17 14 18 25"/>
    <path d="M100 85c-4 10-13 17-24 18-11 1-21-4-27-13"/>
    <path d="M45 84c-6-9-6-21 0-30 5-9 15-15 26-15"/>
    <path d="M57 48l13 15"/>
    <path d="M45 84l20-4"/>
    <path d="M100 85l-20-4"/>
  </g>
  <circle cx="55" cy="48" r="7.5" fill="#141b2d" stroke="#ffffff" stroke-width="4"/>
  <circle cx="45" cy="84" r="7.5" fill="#141b2d" stroke="#ffffff" stroke-width="4"/>
  <circle cx="100" cy="85" r="7.5" fill="#141b2d" stroke="#ffffff" stroke-width="4"/>
</svg>
